<svg xmlns="http://www.w3.org/2000/svg" version="1.1" xmlns:xlink="http://www.w3.org/1999/xlink" xmlns:svgjs="http://svgjs.com/svgjs" width="20.286mm" height="11.387mm"><svg xmlns="http://www.w3.org/2000/svg" width="20.286mm" height="11.387mm" viewBox="0 0 57.502 32.278">
  <defs>
    <style>
      .a {
        fill: #1d1d1b;
      }
    </style>
  </defs>
  <g>
    <path class="a" d="M0,0H14.672a14.392,14.392,0,0,1,5.976,1.077Q25.114,3.143,25.115,8.7a8.574,8.574,0,0,1-1.2,4.746,8.652,8.652,0,0,1-3.351,2.967,6.6,6.6,0,0,1,2.846,2.021A7.269,7.269,0,0,1,24.477,22.5l.154,4.329a13.306,13.306,0,0,0,.308,2.746,2.7,2.7,0,0,0,1.406,1.978v.725H20.984a4.01,4.01,0,0,1-.352-1.077,20.558,20.558,0,0,1-.219-2.549l-.264-5.383q-.15-3.163-2.284-4.241a9.222,9.222,0,0,0-3.822-.593H4.373V32.278H0ZM14.2,14.788a8.067,8.067,0,0,0,4.732-1.231q1.741-1.23,1.742-4.438,0-3.45-2.436-4.7a7.762,7.762,0,0,0-3.483-.66H4.373V14.788Z"></path>
    <path class="a" d="M32.08,0H36.5V13.337H53.084V0H57.5V32.278H53.084V17.183H36.5v15.1H32.08Z"></path>
  </g>
</svg><style>@media (prefers-color-scheme: light) { :root { filter: none; } }
@media (prefers-color-scheme: dark) { :root { filter: invert(100%); } }
</style></svg>